<?xml version="1.0" standalone="no"?><!DOCTYPE svg PUBLIC "-//W3C//DTD SVG 1.1//EN" "http://www.w3.org/Graphics/SVG/1.1/DTD/svg11.dtd"><svg class="icon" width="32px" height="32.00px" viewBox="0 0 1024 1024" version="1.1" xmlns="http://www.w3.org/2000/svg"><path d="M925.42 346.38v357.64c0 18.16-22.25 26.92-34.63 13.64L786.88 606.2v-162l103.91-111.45c12.38-13.28 34.63-4.52 34.63 13.63z" fill="#FFCC94" /><path d="M741.88 192.21H143.71c-24.85 0-45 20.15-45 45v550.67c0 24.85 20.15 45 45 45h598.17c24.85 0 45-20.15 45-45V237.21c0-24.85-20.15-45-45-45zM385.71 620.78V415.01c0-18.15 22.25-26.92 34.63-13.63l95.92 102.88c7.16 7.68 7.16 19.59 0 27.27l-95.92 102.89c-12.38 13.28-34.63 4.52-34.63-13.64z" fill="#FB8C00" /><path d="M516.26 531.53l-95.92 102.89c-12.38 13.28-34.63 4.52-34.63-13.64V415.01c0-18.15 22.25-26.92 34.63-13.63l95.92 102.88c7.16 7.68 7.16 19.59 0 27.27z" fill="#FFCC94" /></svg>