<?xml version="1.0" standalone="no"?><!DOCTYPE svg PUBLIC "-//W3C//DTD SVG 1.1//EN" "http://www.w3.org/Graphics/SVG/1.1/DTD/svg11.dtd"><svg class="icon" width="32px" height="32.00px" viewBox="0 0 1024 1024" version="1.1" xmlns="http://www.w3.org/2000/svg"><path d="M246.568421 384h405.557895c32.336842 0 48.505263 13.473684 48.505263 41.768421V754.526316c0 28.294737-16.168421 41.768421-48.505263 41.768421H246.568421c-32.336842 0-48.505263-13.473684-48.505263-41.768421V424.421053c0-26.947368 16.168421-40.421053 48.505263-40.421053z" fill="#2C83FF" /><path d="M187.284211 229.052632h393.431578c35.031579 0 52.547368 13.473684 52.547369 39.073684v301.810526c0 25.6-17.515789 37.726316-52.547369 37.726316H187.284211c-35.031579-1.347368-52.547368-13.473684-52.547369-39.073684V268.126316c0-25.6 17.515789-39.073684 52.547369-39.073684z" fill="#24EAEC" opacity=".655" /><path d="M850.189474 749.136842l-153.6-90.273684c-12.126316-4.042105-21.557895-14.821053-21.557895-28.294737v-87.578947c0-13.473684 8.084211-25.6 21.557895-29.642106l153.6-90.273684c9.431579-2.694737 18.863158-1.347368 26.947368 5.389474s12.126316 14.821053 12.126316 25.6v266.778947c0 9.431579-4.042105 18.863158-12.126316 24.252632-8.084211 5.389474-17.515789 6.736842-26.947368 4.042105z" fill="#2C83FF" /><path d="M311.242105 517.389474c0 24.252632 18.863158 43.115789 43.11579 43.115789 22.905263 0 43.115789-18.863158 43.115789-43.115789 0-16.168421-8.084211-29.642105-21.557895-37.726316-13.473684-8.084211-29.642105-8.084211-43.115789 0s-21.557895 21.557895-21.557895 37.726316z" fill="#FFFFFF" /></svg>