<?xml version="1.0" standalone="no"?><!DOCTYPE svg PUBLIC "-//W3C//DTD SVG 1.1//EN" "http://www.w3.org/Graphics/SVG/1.1/DTD/svg11.dtd"><svg class="icon" width="32px" height="32.00px" viewBox="0 0 1024 1024" version="1.1" xmlns="http://www.w3.org/2000/svg"><path fill="#26bfbf" d="M728.391882 785.82678q-18.475943 18.475943-36.873097 37.437749-16.755723 17.26785-33.839733 34.220545l-25.606317 25.685106-13.197102 13.341547A80.574545 80.574545 0 0 0 602.408801 919.911962q-3.164678 7.603106-5.646521 15.468842l-7.642501 24.069938q-4.083879 12.658713-7.209163 25.120454-2.403054 9.08696-4.08388 18.384022c-1.313144 8.154627-0.643441 14.011252 2.035374 17.45169s8.312205 4.333377 16.440569 3.007101c4.083879-0.617178 10.26879-2.061637 18.384023-4.202062 8.233416-1.877797 16.729461-4.293982 25.606317-7.209163 8.798068-2.626289 17.54361-5.567733 26.197232-8.653622a174.42498 174.42498 0 0 0 18.935543-7.668764 84.106903 84.106903 0 0 0 12.291033-7.642501l11.240516-8.745542c0.669704-0.617178 4.254588-4.385903 10.702128-11.135465 6.565722-7.038454 14.444589-15.035504 24.017412-24.63459l33.800339-33.839733 36.768045-36.768046L913.624041 773.535748l-85.9847-85.9847q-49.833833 48.9015-99.247459 98.275732zM982.157051 692.777363a83.80488 83.80488 0 0 0-4.123274-20.44566 94.546402 94.546402 0 0 0-18.068868-27.155828c-7.878867-8.561702-15.166819-14.444589-21.99517-17.885027-6.158648-3.440439-13.919331-5.593995-23.531549-6.565723s-18.502206 2.101031-26.551781 9.572824c-3.440439 2.849524-7.681895 6.565722-12.855684 11.319305s-9.599086 8.876857-13.788017 12.317295l86.995821 85.945306a50.135856 50.135856 0 0 0 7.209163-6.158648c2.101031-2.153557 4.517217-4.569743 7.182901-7.708158s5.856624-6.289962 9.192011-9.599086c7.616238-7.589975 10.977888-15.468842 10.334447-23.6366zM628.054512 164.775102a67.876438 67.876438 0 0 0 12.776896 17.91129 25.711369 25.711369 0 0 0 18.974938 7.72129v-0.078789h150.315648v-16.374911a54.245998 54.245998 0 0 0-2.048506-14.300144c-1.313144-5.515207-4.832372-12.185981-10.702127-19.959796a284.637196 284.637196 0 0 0-25.120454-28.665944Q751.004229 89.558186 728.339356 69.59839 707.460359 51.043659 685.793475 33.32934A349.782293 349.782293 0 0 0 657.180057 11.820034c-7.878867-5.134395-14.523378-8.36473-19.959796-9.756664A70.489595 70.489595 0 0 0 619.794834 0.001733h-2.048506v125.891161a77.370472 77.370472 0 0 0 2.626289 17.911291 90.974649 90.974649 0 0 0 7.681895 20.970917z"  /><path fill="#26bfbf" d="M660.673021 255.894197q-28.600287 0-48.99342-12.829422a109.174831 109.174831 0 0 1-33.35387-31.646782 142.51557 142.51557 0 0 1-18.935543-41.495365 159.310687 159.310687 0 0 1-6.106122-41.90244V0.001733H161.310441a86.785718 86.785718 0 0 0-45.040855 12.776896 164.418819 164.418819 0 0 0-38.35695 31.791228A149.475235 149.475235 0 0 0 51.426512 86.945029c-6.565722 15.757734-9.730401 30.661923-9.730401 45.040855V828.858524a102.123246 102.123246 0 0 0 13.289022 49.755044 173.742145 173.742145 0 0 0 33.301344 42.414567 183.840226 183.840226 0 0 0 42.913561 29.637671c15.416316 7.419266 29.506356 11.319305 42.493356 11.319305h282.40485l193.439312-201.515151c8.023313-8.023313 13.709228-13.919331 21.010312-21.246677l8.27281-8.587965a6.434408 6.434408 0 0 0 0.617178-0.643441l130.605349-135.51651V255.894197z m50.319696 337.12358a27.576034 27.576034 0 0 1-27.576034 27.576034H168.375158a27.576034 27.576034 0 0 1-27.576033-27.576034 27.576034 27.576034 0 0 1 27.576033-27.576034h515.041525a27.576034 27.576034 0 0 1 27.576034 27.576034z m0-160.203626a27.576034 27.576034 0 0 1-27.576034 27.576034H168.375158a27.576034 27.576034 0 0 1-27.576033-27.576034 27.576034 27.576034 0 0 1 27.576033-27.576033h515.041525a27.576034 27.576034 0 0 1 27.576034 27.576033z"  /></svg>