<?xml version="1.0" standalone="no"?><!DOCTYPE svg PUBLIC "-//W3C//DTD SVG 1.1//EN" "http://www.w3.org/Graphics/SVG/1.1/DTD/svg11.dtd"><svg class="icon" width="32px" height="32.00px" viewBox="0 0 1024 1024" version="1.1" xmlns="http://www.w3.org/2000/svg"><path fill="#26bfbf" d="M808.301677 129.278707V0h86.445216v129.278707H1023.98976v86.404256h-129.242867v129.903341h-86.445216V215.03273h-129.934061V129.278707h129.934061z m-10.874771 313.596864h108.809152v304.621594c0 95.99904-10.869651 131.255007-29.434586 166.372736-19.184448 35.250847-46.683693 62.750092-81.934541 81.304787-34.564774 19.194688-70.373696 28.820192-166.372736 28.820192H276.466995c-95.99904 0-131.183328-10.245018-166.377856-28.820192-35.209888-19.179328-62.714253-46.053939-81.279187-81.304787C9.589664 878.747053 0 843.491085 0 747.492045V395.531405c0-95.99904 10.250137-131.843802 28.809952-166.403456 19.189568-35.215008 46.064179-62.719373 81.279187-81.939661 35.194528-19.189568 70.378816-28.779232 166.377856-28.779232h305.906701v108.778432H275.187008c-71.653683 0-93.439066 3.220448-115.188608 15.375206-16.624474 6.405056-28.809952 19.189568-37.119629 35.189408-12.789632 22.410016-16.629594 44.809792-16.629593 115.214208v352.0272c0 72.252717 4.469715 93.99714 16.629593 115.122049 8.309677 17.310547 20.500275 29.501145 37.119629 38.440575 21.749543 11.560844 43.529805 15.99984 115.188608 15.99984h351.99648c71.684403 0 93.433946-3.809242 115.183488-15.99984 17.315667-8.309677 29.501145-20.438836 38.435456-37.129868 11.499405-21.744423 15.313767-43.560524 15.313767-115.178368V441.585344l1.310707 1.290227z m-247.05289-14.069619c44.809792-10.250137 92.809312 3.845082 126.744333 38.374016 53.119469 53.119469 53.119469 140.808832 0 194.563175l-1.935341 1.93534a136.313517 136.313517 0 0 1-194.563174 0l-122.873651-127.99872c-15.99984-15.380326-40.939111-15.380326-56.314317 0l-2.559975 2.559975c-15.99984 17.878861-15.99984 44.748353 0 60.748192 9.589664 10.255257 23.684883 14.125939 36.500115 10.874771 25.589504-6.374336 52.464115 11.560844 57.589184 37.124749 6.410176 25.625344-10.250137 52.499955-36.500115 57.625024-44.779072 10.874771-93.433946-2.498535-126.718732-37.124749-53.124589-54.373856-53.124589-140.778112 0-195.812442l1.93534-1.279987C286.717133 415.99584 372.466035 415.99584 426.875731 470.405536l123.503405 124.778272c15.370086 15.99984 40.375916 15.99984 55.746003 0l1.873901-1.315827a42.833492 42.833492 0 0 0 0-59.463085c-10.245018-9.599904-23.690003-12.820352-37.124749-10.874771-25.625344 6.374336-51.184128-10.250137-57.625023-36.500115-6.374336-25.599744 10.250137-51.194368 36.500115-57.599424l0.624633-0.624634z" /></svg>